<svg width="97" height="51" viewBox="0 0 97 51" fill="none" xmlns="http://www.w3.org/2000/svg">
<path fill-rule="evenodd" clip-rule="evenodd" d="M45.811 40.9444C46.9807 39.4608 47.9724 37.8611 48.7749 36.1778V50.5949L53.7611 50.5949V25.3387H65.5862L89.2366 50.5949H97.0019L72.493 25.3387H81.6347V20.2875H67.5913L48.7749 0.897339V20.2875H30.9554V25.3387H45.1751C45.1751 29.6467 43.7232 33.8299 41.0525 37.2171C38.3818 40.6044 34.6469 42.9993 30.4471 44.0178C26.2473 45.0362 21.8261 44.6191 17.8926 42.8334C13.9591 41.0476 10.7414 37.9968 8.75572 34.1702C6.77004 30.3437 6.13147 25.9633 6.94244 21.7317C7.75341 17.5002 9.96692 13.6628 13.2279 10.8352C16.4888 8.00751 20.6082 6.35354 24.9251 6.13858C29.242 5.92361 33.5062 7.16012 37.0337 9.64974L40.5312 4.72687C35.8969 1.45607 30.2946 -0.168432 24.6231 0.11398C18.9516 0.396392 13.5397 2.56935 9.25553 6.28425C4.97137 9.99914 2.0633 15.0407 0.997864 20.6C-0.0675727 26.1593 0.771377 31.9142 3.38012 36.9414C5.98887 41.9686 10.2162 45.9768 15.3839 48.3228C20.5517 50.6689 26.3602 51.2169 31.8778 49.8789C37.3954 48.5409 42.3022 45.3945 45.811 40.9444ZM53.7611 20.2875H60.8562L53.7611 12.7107V20.2875Z" fill="#101010"/>
</svg>
