<svg xmlns="http://www.w3.org/2000/svg"
     viewBox="0 0 128 128"
     fill="none"
     stroke="currentColor"
     stroke-width="2.5"
     stroke-linecap="round"
     stroke-linejoin="round">

  <!-- Sun -->
  <circle cx="92" cy="28" r="6"/>

  <!-- Bird -->
  <path d="M82 42c4-5 8-5 12 0"/>
  <path d="M94 42c4-5 8-5 12 0"/>

  <!-- Pine -->
  <path d="M28 70l8-12 8 12"/>
  <path d="M26 78l10-14 10 14"/>
  <path d="M24 88l12-18 12 18"/>
  <line x1="36" y1="88" x2="36" y2="100"/>

  <!-- Small pine -->
  <path d="M12 80l6-8 6 8"/>
  <path d="M10 88l8-12 8 12"/>
  <line x1="18" y1="88" x2="18" y2="100"/>

  <!-- Hills -->
  <path d="M44 72c12-8 28-8 44 0"/>

  <!-- Lake -->
  <path d="M8 100H120"/>
  <path d="M24 108h14"/>
  <path d="M48 112h22"/>
  <path d="M82 108h18"/>

  <!-- Reeds -->
  <path d="M104 100V82"/>
  <path d="M112 100V76"/>
  <path d="M98 100c4-10 6-18 6-26"/>
  <path d="M116 100c-4-12-6-22-4-30"/>

</svg>
